<?xml version="1.0" standalone="no"?>
<!DOCTYPE svg PUBLIC "-//W3C//DTD SVG 20010904//EN"
 "http://www.w3.org/TR/2001/REC-SVG-20010904/DTD/svg10.dtd">
<svg version="1.0" xmlns="http://www.w3.org/2000/svg"
 width="1273.000000pt" height="1273.000000pt" viewBox="0 0 1273.000000 1273.000000"
 preserveAspectRatio="xMidYMid meet">
<metadata>
Created by potrace 1.11, written by Peter Selinger 2001-2013
</metadata>
<g transform="translate(0.000000,1273.000000) scale(0.100000,-0.100000)"
fill="#000000" stroke="none">
<path d="M915 10299 c-121 -166 -228 -318 -238 -338 -12 -24 -16 -50 -13 -76
3 -26 196 -424 557 -1150 303 -610 783 -1578 1066 -2150 283 -572 525 -1054
538 -1071 13 -17 41 -39 62 -49 21 -10 385 -99 808 -197 424 -98 1515 -352
2425 -564 2625 -611 5846 -1358 6078 -1409 25 -6 -8 63 -455 943 -210 413
-240 466 -273 488 -25 17 -161 58 -421 129 -880 238 -4104 1111 -5854 1586
-1034 280 -1902 519 -1928 531 -27 12 -63 38 -80 58 -18 19 -484 831 -1036
1803 -553 972 -1007 1767 -1010 1767 -4 0 -105 -136 -226 -301z"/>
<path d="M3537 10268 l-196 -271 52 -39 c29 -22 104 -70 167 -108 129 -76 697
-356 706 -348 6 7 -515 1038 -525 1038 -4 0 -96 -122 -204 -272z"/>
<path d="M2977 9589 l-188 -260 37 -42 c244 -273 586 -633 618 -652 23 -13
428 -177 901 -365 1158 -461 1237 -492 1242 -486 10 10 -473 959 -507 997 -31
34 -110 71 -712 337 -372 164 -702 314 -732 332 -43 26 -320 260 -451 380 -20
18 -22 15 -208 -241z"/>
<path d="M2484 8998 c-76 -105 -142 -200 -146 -210 -5 -11 -2 -31 6 -47 45
-85 851 -1300 878 -1323 26 -20 184 -73 693 -231 363 -113 1120 -348 1683
-522 562 -175 1025 -316 1028 -313 9 10 -395 793 -423 820 -21 19 -358 142
-1393 507 -751 265 -1378 491 -1395 503 -16 11 -180 214 -363 452 -183 237
-354 459 -380 493 l-48 62 -140 -191z"/>
<path d="M1520 7531 c-100 -140 -108 -158 -93 -209 6 -20 81 -217 168 -437 87
-220 334 -854 551 -1409 216 -555 401 -1018 411 -1028 16 -15 236 -53 1233
-213 668 -107 1496 -240 1840 -295 371 -60 639 -99 660 -96 19 3 246 92 504
198 346 142 464 194 450 200 -10 4 -480 98 -1044 208 -564 111 -1275 250
-1580 310 -305 60 -847 166 -1203 235 -356 69 -659 131 -673 137 -15 7 -35 34
-53 72 -22 45 -787 1788 -1049 2389 -14 31 -28 57 -31 57 -3 -1 -44 -54 -91
-119z"/>
<path d="M1148 7047 c-42 -56 -79 -114 -83 -129 -5 -19 51 -208 209 -710 118
-375 381 -1211 585 -1857 203 -645 376 -1180 385 -1189 18 -19 -9 -16 1001
-113 482 -46 768 -69 820 -67 78 4 95 11 620 227 297 122 542 225 544 227 2 2
2 6 -1 9 -5 5 -652 90 -1938 252 -828 104 -856 109 -882 133 -23 21 -113 270
-544 1505 -284 814 -541 1552 -571 1640 -31 88 -59 163 -62 167 -4 5 -41 -38
-83 -95z"/>
<path d="M894 6682 c-43 -54 -56 -92 -52 -146 4 -42 526 -2011 1047 -3949 67
-247 121 -450 121 -453 0 -2 4 -4 9 -4 8 0 600 239 811 327 28 12 32 16 19 23
-9 5 -168 19 -355 30 -186 11 -349 25 -361 30 -17 7 -28 30 -47 92 -19 64
-1132 3981 -1154 4061 -6 23 -13 21 -38 -11z"/>
</g>
</svg>
