<svg version="1.0" xmlns="http://www.w3.org/2000/svg" width="1697.333" height="1697.333" viewBox="0 0 1273 1273"><path d="M91.5 243.1c-12.1 16.6-22.8 31.8-23.8 33.8-1.2 2.4-1.6 5-1.3 7.6.3 2.6 19.6 42.4 55.7 115 30.3 61 78.3 157.8 106.6 215 28.3 57.2 52.5 105.4 53.8 107.1 1.3 1.7 4.1 3.9 6.2 4.9 2.1 1 38.5 9.9 80.8 19.7C411.9 756 521 781.4 612 802.6c262.5 61.1 584.6 135.8 607.8 140.9 2.5.6-.8-6.3-45.5-94.3-21-41.3-24-46.6-27.3-48.8-2.5-1.7-16.1-5.8-42.1-12.9-88-23.8-410.4-111.1-585.4-158.6-103.4-28-190.2-51.9-192.8-53.1-2.7-1.2-6.3-3.8-8-5.8-1.8-1.9-48.4-83.1-103.6-180.3-55.3-97.2-100.7-176.7-101-176.7-.4 0-10.5 13.6-22.6 30.1zM353.7 246.2l-19.6 27.1 5.2 3.9c2.9 2.2 10.4 7 16.7 10.8 12.9 7.6 69.7 35.6 70.6 34.8.6-.7-51.5-103.8-52.5-103.8-.4 0-9.6 12.2-20.4 27.2z"/><path d="M297.7 314.1l-18.8 26 3.7 4.2c24.4 27.3 58.6 63.3 61.8 65.2 2.3 1.3 42.8 17.7 90.1 36.5 115.8 46.1 123.7 49.2 124.2 48.6 1-1-47.3-95.9-50.7-99.7-3.1-3.4-11-7.1-71.2-33.7-37.2-16.4-70.2-31.4-73.2-33.2-4.3-2.6-32-26-45.1-38-2-1.8-2.2-1.5-20.8 24.1z"/><path d="M248.4 373.2c-7.6 10.5-14.2 20-14.6 21-.5 1.1-.2 3.1.6 4.7 4.5 8.5 85.1 130 87.8 132.3 2.6 2 18.4 7.3 69.3 23.1 36.3 11.3 112 34.8 168.3 52.2 56.2 17.5 102.5 31.6 102.8 31.3.9-1-39.5-79.3-42.3-82-2.1-1.9-35.8-14.2-139.3-50.7-75.1-26.5-137.8-49.1-139.5-50.3-1.6-1.1-18-21.4-36.3-45.2-18.3-23.7-35.4-45.9-38-49.3l-4.8-6.2-14 19.1zM152 519.9c-10 14-10.8 15.8-9.3 20.9.6 2 8.1 21.7 16.8 43.7 8.7 22 33.4 85.4 55.1 140.9 21.6 55.5 40.1 101.8 41.1 102.8 1.6 1.5 23.6 5.3 123.3 21.3 66.8 10.7 149.6 24 184 29.5 37.1 6 63.9 9.9 66 9.6 1.9-.3 24.6-9.2 50.4-19.8 34.6-14.2 46.4-19.4 45-20-1-.4-48-9.8-104.4-20.8-56.4-11.1-127.5-25-158-31s-84.7-16.6-120.3-23.5c-35.6-6.9-65.9-13.1-67.3-13.7-1.5-.7-3.5-3.4-5.3-7.2-2.2-4.5-78.7-178.8-104.9-238.9-1.4-3.1-2.8-5.7-3.1-5.7-.3.1-4.4 5.4-9.1 11.9z"/><path d="M114.8 568.3c-4.2 5.6-7.9 11.4-8.3 12.9-.5 1.9 5.1 20.8 20.9 71 11.8 37.5 38.1 121.1 58.5 185.7 20.3 64.5 37.6 118 38.5 118.9 1.8 1.9-.9 1.6 100.1 11.3 48.2 4.6 76.8 6.9 82 6.7 7.8-.4 9.5-1.1 62-22.7 29.7-12.2 54.2-22.5 54.4-22.7.2-.2.2-.6-.1-.9-.5-.5-65.2-9-193.8-25.2-82.8-10.4-85.6-10.9-88.2-13.3-2.3-2.1-11.3-27-54.4-150.5-28.4-81.4-54.1-155.2-57.1-164-3.1-8.8-5.9-16.3-6.2-16.7-.4-.5-4.1 3.8-8.3 9.5z"/><path d="M89.4 604.8c-4.3 5.4-5.6 9.2-5.2 14.6.4 4.2 52.6 201.1 104.7 394.9 6.7 24.7 12.1 45 12.1 45.3 0 .2.4.4.9.4.8 0 60-23.9 81.1-32.7 2.8-1.2 3.2-1.6 1.9-2.3-.9-.5-16.8-1.9-35.5-3-18.6-1.1-34.9-2.5-36.1-3-1.7-.7-2.8-3-4.7-9.2-1.9-6.4-113.2-398.1-115.4-406.1-.6-2.3-1.3-2.1-3.8 1.1z"/></svg>